<svg width="527" height="532" viewBox="0 0 527 532" fill="none" xmlns="http://www.w3.org/2000/svg">
<rect x="337.264" y="284.101" width="10" height="87" transform="rotate(-30.2082 337.264 284.101)" fill="#ACACAC"/>
<rect x="380.85" y="361.76" width="8" height="110.999" transform="rotate(-99.2316 380.85 361.76)" fill="#ACACAC"/>
<path d="M303 370.13L310.901 364L364.229 432.74L356.328 438.869L303 370.13Z" fill="#ACACAC"/>
<rect x="354" y="433.588" width="10" height="80" transform="rotate(-15 354 433.588)" fill="#ACACAC"/>
<path d="M369 507H395C403.837 507 411 514.163 411 523H369V507Z" fill="#D9D9D9"/>
<path d="M328.701 134.182C339.935 127.067 353.83 138.152 349.388 150.686L330.813 203.103C328.217 210.429 332.085 218.468 339.431 221.009L392.468 239.361C405.106 243.734 405.005 261.642 392.32 265.873L340.248 283.24C332.763 285.736 328.819 293.922 331.53 301.331L350.489 353.147C355.099 365.743 341.066 376.985 329.779 369.739L282.888 339.636C276.292 335.401 267.505 337.406 263.399 344.082L234.541 391.003C227.563 402.35 210.177 398.458 208.702 385.219L202.494 329.49C201.637 321.794 194.695 316.256 187 317.129L131.285 323.458C118.049 324.961 110.392 308.874 119.904 299.549L159.241 260.989C164.839 255.502 164.841 246.489 159.247 240.999L119.479 201.968C109.906 192.573 117.749 176.393 131.055 178.089L185.787 185.063C193.614 186.06 200.719 180.396 201.49 172.543L206.855 117.914C208.162 104.605 225.599 100.529 232.67 111.879L262.347 159.514C266.457 166.111 275.154 168.098 281.721 163.939L328.701 134.182Z" fill="#CDCDCD"/>
<path d="M386.547 204.142C399.628 206.539 402.312 224.109 390.544 230.302L341.332 256.2C334.453 259.82 331.84 268.35 335.511 275.201L362.017 324.671C368.332 336.458 356.107 349.544 343.918 344.044L293.884 321.466C286.692 318.221 278.24 321.557 275.204 328.84L253.97 379.766C248.808 392.146 230.873 390.881 227.499 377.899L213.482 323.969C211.511 316.383 203.696 311.893 196.15 314.011L143.114 328.894C130.288 332.494 120.159 317.838 128.059 307.112L161.315 261.964C165.907 255.729 164.566 246.95 158.321 242.371L113.102 209.213C102.359 201.336 107.651 184.324 120.966 183.929L176.026 182.297C183.861 182.065 189.978 175.447 189.595 167.618L186.868 111.963C186.212 98.5657 202.952 92.0034 211.575 102.277L247.046 144.54C252.119 150.583 261.181 151.244 267.076 145.999L308.086 109.512C318.076 100.623 333.651 109.461 331.143 122.597L320.619 177.724C319.161 185.359 324.202 192.72 331.847 194.12L386.547 204.142Z" fill="#CDCDCD"/>
<path d="M386.77 263.545C398.806 271.487 393.797 290.178 379.404 291.038L328.507 294.079C320.063 294.584 313.706 301.968 314.462 310.394L319.062 361.622C320.358 376.061 302.45 383.757 292.867 372.879L259.688 335.22C254.012 328.777 244.096 328.405 237.953 334.403L201.867 369.64C191.464 379.799 174.141 370.698 176.604 356.368L185.24 306.115C186.685 297.708 180.838 289.79 172.379 288.698L122.36 282.237C108.035 280.387 104.345 261.347 116.942 254.279L161.796 229.112C169.147 224.987 171.658 215.618 167.354 208.371L141.092 164.148C133.717 151.729 146.433 137.085 159.763 142.645L206.311 162.059C214.184 165.343 223.206 161.409 226.158 153.406L243.806 105.568C248.838 91.9264 268.39 92.706 272.32 106.705L285.953 155.264C288.274 163.531 297.047 168.166 305.184 165.425L352.748 149.4C366.486 144.771 378.147 160.39 369.804 172.247L340.207 214.312C335.339 221.23 337.153 230.804 344.214 235.463L386.77 263.545Z" fill="#CDCDCD"/>
<path d="M263.617 107.18C270.801 95.9897 288.075 100.179 289.335 113.417L294.604 168.777C295.341 176.515 302.239 182.172 309.971 181.377L365.801 175.644C379.103 174.278 386.566 190.556 376.849 199.744L336.963 237.456C331.23 242.877 331.106 251.962 336.69 257.536L375.738 296.518C385.23 305.995 377.249 322.107 363.959 320.298L308.745 312.785C300.979 311.728 293.858 317.252 292.952 325.037L286.58 379.752C285.039 392.984 267.634 396.789 260.712 385.408L231.575 337.498C227.551 330.882 218.921 328.789 212.313 332.827L164.467 362.067C153.1 369.014 139.372 357.658 144.063 345.191L163.463 293.635C166.223 286.299 162.424 278.127 155.036 275.509L102.514 256.896C89.8717 252.415 90.158 234.437 102.937 230.362L155.504 213.597C163.021 211.2 167.073 203.067 164.46 195.622L146.279 143.828C141.85 131.211 155.941 120.159 167.14 127.467L214.141 158.138C220.65 162.386 229.374 160.518 233.573 153.977L263.617 107.18Z" fill="#CDCDCD"/>
<rect x="223.517" y="378" width="10" height="87" transform="rotate(15 223.517 378)" fill="#ACACAC"/>
<ellipse cx="224.5" cy="375" rx="10.5" ry="12" fill="#CDCDCD"/>
<rect x="204.284" y="458" width="10" height="57.0161" transform="rotate(40.8095 204.284 458)" fill="#ACACAC"/>
<path d="M164.163 498L187.412 509.64C195.313 513.597 198.512 523.209 194.556 531.111V531.111L157 512.307L164.163 498Z" fill="#D9D9D9"/>
<rect x="158.328" y="300.859" width="10" height="87" transform="rotate(75 158.328 300.859)" fill="#ACACAC"/>
<ellipse cx="160.703" cy="301.358" rx="11.739" ry="7.82916" transform="rotate(19.9012 160.703 301.358)" fill="#CDCDCD"/>
<rect x="74.1875" y="331.249" width="8" height="101.375" transform="rotate(-30 74.1875 331.249)" fill="#ACACAC"/>
<path d="M273 237.5C273 238.163 272.737 238.799 272.268 239.268C271.799 239.737 271.163 240 270.5 240C269.837 240 269.201 239.737 268.732 239.268C268.263 238.799 268 238.163 268 237.5L270.5 237.5H273Z" fill="#606060"/>
<path d="M260 237.5C260 238.163 259.737 238.799 259.268 239.268C258.799 239.737 258.163 240 257.5 240C256.837 240 256.201 239.737 255.732 239.268C255.263 238.799 255 238.163 255 237.5L257.5 237.5H260Z" fill="#606060"/>
<mask id="mask0_9_118" style="mask-type:alpha" maskUnits="userSpaceOnUse" x="198" y="238" width="133" height="63">
<path d="M330.505 238.708C331.575 245.552 330.848 252.605 328.366 259.447C325.884 266.288 321.699 272.776 316.061 278.525C310.423 284.273 303.446 289.164 295.549 292.904C287.652 296.644 278.996 299.157 270.099 300.293C261.201 301.43 252.244 301.165 243.763 299.517C235.282 297.868 227.451 294.868 220.737 290.697C214.024 286.526 208.566 281.268 204.689 275.239C200.813 269.21 198.597 262.533 198.175 255.606C198.175 255.606 211.532 264.118 238.389 265.155C265.246 266.192 284.258 258.693 289.948 257.091C295.638 255.49 330.505 238.708 330.505 238.708Z" fill="#444444"/>
</mask>
<g mask="url(#mask0_9_118)">
<ellipse cx="259.425" cy="262.5" rx="102.5" ry="71.5" fill="#777777"/>
<rect x="251.925" y="253.411" width="21" height="25" rx="5" transform="rotate(-3.19948 251.925 253.411)" fill="#FAFAFA"/>
<rect x="272.373" y="251.09" width="21" height="25" rx="5" transform="rotate(-11.2298 272.373 251.09)" fill="#FAFAFA"/>
<rect x="249.007" y="292.239" width="11.9896" height="18.6328" rx="5" transform="rotate(0.253634 249.007 292.239)" fill="#FAFAFA"/>
<rect x="264.925" y="293.64" width="11.9896" height="18.6328" rx="5" transform="rotate(-1.91754 264.925 293.64)" fill="#FAFAFA"/>
<rect x="277.925" y="293.574" width="11.9896" height="18.6328" rx="5" transform="rotate(-11.2298 277.925 293.574)" fill="#FAFAFA"/>
<rect x="289.925" y="290.496" width="11.9896" height="18.6328" rx="5" transform="rotate(-26.0076 289.925 290.496)" fill="#FAFAFA"/>
</g>
<rect width="7.37628" height="11.0772" rx="3" transform="matrix(0.944652 -0.328075 0.345141 0.938551 485 334.745)" fill="#ACACAC"/>
<path d="M487.869 334.745C487.869 334.745 485.483 323.013 490.851 318.824" stroke="#ACACAC" stroke-width="3"/>
<path d="M490.455 335.24C490.455 335.24 511.746 326.623 519.651 312" stroke="#ACACAC" stroke-width="3"/>
<path d="M491.991 338.397C491.991 338.397 515.681 332.549 525.86 321.098" stroke="#ACACAC" stroke-width="3"/>
<path d="M487.341 342.706C487.341 342.706 504.995 341.442 513.086 338.157" stroke="#ACACAC" stroke-width="3"/>
<rect width="7.37628" height="11.0772" rx="3" transform="matrix(0.63271 0.774389 -0.762795 0.64664 133.763 412.816)" fill="#ACACAC"/>
<path d="M134.749 415.51C134.749 415.51 144.947 409.238 150.726 412.84" stroke="#ACACAC" stroke-width="3"/>
<path d="M135.174 418.109C135.174 418.109 150.581 435.142 167.031 437.541" stroke="#ACACAC" stroke-width="3"/>
<path d="M132.736 420.637C132.736 420.637 146.369 440.874 160.62 446.498" stroke="#ACACAC" stroke-width="3"/>
<path d="M127.092 417.75C127.092 417.75 134.345 433.894 140.211 440.364" stroke="#ACACAC" stroke-width="3"/>
<path d="M208.65 44.4456C209.872 42.2122 212.843 41.6743 214.771 43.3372L312.452 127.582C315.576 130.276 313.072 135.362 309.032 134.529L179.819 107.888C177.185 107.345 175.826 104.409 177.118 102.05L208.65 44.4456Z" fill="#29965B"/>
<path fill-rule="evenodd" clip-rule="evenodd" d="M177.11 98.077C188.975 101.26 197.003 103.414 203.5 101C197.987 88.0927 167.83 70.8332 136.786 65.9115C105.742 60.9898 82 69.5 76.9019 80.1758C79.0335 83.8029 87.3722 85.3645 98.7978 86.4865L99.5 80L100.217 86.6223C103.972 86.9725 108.033 87.2841 112.297 87.6113C122.827 88.4192 134.591 89.3219 146.025 91.1345C158.757 93.1531 168.861 95.8638 177.11 98.077Z" fill="url(#paint0_linear_9_118)"/>
<path d="M85.9113 78.3803C98.4232 68.5941 217.038 85.4641 232.006 129.616" stroke="#8B1919" stroke-width="2"/>
<path d="M164.996 107.817C165.71 106.034 167.589 105.01 169.474 105.376L323.582 135.36C328.267 136.272 327.706 143.144 322.936 143.285L154.847 148.243C151.968 148.328 149.946 145.434 151.016 142.759L164.996 107.817Z" fill="#227246"/>
<path d="M198.462 172.698C202.713 187.854 191.008 183.617 179.575 186.823C168.142 190.03 160.347 199.735 156.097 184.58C151.846 169.425 152.75 135.147 164.183 131.941C175.616 128.734 194.212 157.543 198.462 172.698Z" fill="#CDCDCD"/>
<path d="M275.189 192.516C268.562 206.794 262.426 195.963 251.655 190.964C240.885 185.966 228.652 188.27 235.278 173.993C241.905 159.715 264.881 134.263 275.652 139.262C286.423 144.261 281.816 178.239 275.189 192.516Z" fill="#CDCDCD"/>
<ellipse cx="218" cy="220" rx="26" ry="22" fill="#FEFEFE"/>
<ellipse cx="296.5" cy="209" rx="25.5" ry="22" fill="#FEFEFE"/>
<ellipse cx="297.5" cy="211.5" rx="16.5" ry="13.5" fill="#984E18"/>
<ellipse cx="218.5" cy="221.5" rx="16.5" ry="13.5" fill="#984E18"/>
<ellipse cx="302" cy="204" rx="5" ry="6" fill="#FEFEFE"/>
<ellipse cx="226" cy="216" rx="5" ry="6" fill="#FEFEFE"/>
<path d="M322.759 196.103C337.411 204.436 311.213 203.154 296.97 203.154C283.063 203.154 258.271 209.877 270.25 197.661C270.824 197.075 271.153 196.275 271.285 195.465C272.462 188.21 283.512 182 296.97 182C311.213 182 322.759 188.314 322.759 196.103Z" fill="#DCDCDC"/>
<path d="M239.099 202.871C253.843 209.19 228.978 210.832 215.537 212.387C202.427 213.904 179.804 222.981 189.686 210.125C190.183 209.478 190.413 208.651 190.455 207.835C190.812 200.829 200.542 193.752 213.212 192.287C226.653 190.732 238.243 195.471 239.099 202.871Z" fill="#DCDCDC"/>
<defs>
<linearGradient id="paint0_linear_9_118" x1="93.2107" y1="76.5" x2="203.211" y2="105" gradientUnits="userSpaceOnUse">
<stop offset="0.435" stop-color="#B94F4F"/>
<stop offset="1" stop-color="#8B1919"/>
</linearGradient>
</defs>
</svg>
